<?xml version="1.0" encoding="UTF-8" standalone="no"?>
<!-- Generator: Adobe Illustrator 16.0.0, SVG Export Plug-In . SVG Version: 6.00 Build 0)  -->

<svg
   xmlns:dc="http://purl.org/dc/elements/1.1/"
   xmlns:cc="http://creativecommons.org/ns#"
   xmlns:rdf="http://www.w3.org/1999/02/22-rdf-syntax-ns#"
   xmlns:svg="http://www.w3.org/2000/svg"
   xmlns="http://www.w3.org/2000/svg"
   xmlns:sodipodi="http://sodipodi.sourceforge.net/DTD/sodipodi-0.dtd"
   xmlns:inkscape="http://www.inkscape.org/namespaces/inkscape"
   version="1.1"
   id="Layer_1"
   x="0px"
   y="0px"
   width="15.969px"
   height="26.015px"
   viewBox="0 0 15.969 26.015"
   enable-background="new 0 0 15.969 26.015"
   xml:space="preserve"
   inkscape:version="0.91 r13725"
   sodipodi:docname="arrow-down.svg"><metadata
     id="metadata13"><rdf:RDF><cc:Work
         rdf:about=""><dc:format>image/svg+xml</dc:format><dc:type
           rdf:resource="http://purl.org/dc/dcmitype/StillImage" /><dc:title></dc:title></cc:Work></rdf:RDF></metadata><defs
     id="defs11" /><sodipodi:namedview
     pagecolor="#ffffff"
     bordercolor="#666666"
     borderopacity="1"
     objecttolerance="10"
     gridtolerance="10"
     guidetolerance="10"
     inkscape:pageopacity="0"
     inkscape:pageshadow="2"
     inkscape:window-width="735"
     inkscape:window-height="480"
     id="namedview9"
     showgrid="false"
     inkscape:zoom="9.0716896"
     inkscape:cx="7.9844999"
     inkscape:cy="13.0075"
     inkscape:window-x="0"
     inkscape:window-y="0"
     inkscape:window-maximized="0"
     inkscape:current-layer="Layer_1" /><g
     id="g3"
     transform="matrix(0,-1,1,0,-5.0195526,20.994875)"><g
       id="g5"><path
         d="M 15.472,21.943 6.51,12.994 15.462,4.056 C 16.249,3.27 16.089,1.836 15.106,0.855 14.123,-0.127 12.687,-0.287 11.9,0.499 l -9.68,9.665 c -0.474,0.122 -0.946,0.379 -1.346,0.778 -0.58,0.579 -0.867,1.31 -0.854,1.976 -0.083,0.713 0.203,1.531 0.837,2.164 0.403,0.402 0.881,0.658 1.36,0.776 l 9.675,9.661 c 0.787,0.784 2.225,0.62 3.214,-0.367 0.989,-0.987 1.152,-2.424 0.366,-3.209 z"
         id="path7"
         inkscape:connector-curvature="0"
         style="clip-rule:evenodd;fill:#a0a09f;fill-rule:evenodd" /></g></g></svg>